<svg height="512pt" viewBox="0 0 512 512" width="512pt" xmlns="http://www.w3.org/2000/svg"><path d="m512 256c0 141.386719-114.613281 256-256 256s-256-114.613281-256-256 114.613281-256 256-256 256 114.613281 256 256zm0 0" fill="#0092e2"/><path d="m447.796875 302.058594c-8.285156-11.808594-20.691406-20.082032-34.777344-23.199219l-103.34375-22.859375h-107.351562l-103.34375 22.859375c-14.085938 3.117187-26.492188 11.390625-34.777344 23.199219l-41.597656 59.273437c40.15625 88.84375 129.554687 150.667969 233.394531 150.667969s193.238281-61.824219 233.394531-150.667969zm0 0" fill="#e83826"/><path d="m105.769531 347.515625-26.675781 93.519531c10.195312 9.75 21.199219 18.664063 32.898438 26.636719zm0 0" fill="#db2a17"/><path d="m432.957031 440.988281-26.664062-93.472656-6.222657 120.113281c11.695313-7.976562 22.695313-16.890625 32.886719-26.640625zm0 0" fill="#db2a17"/><path d="m404.433594 396.105469 25.1875 48.011719c25.082031-23.160157 45.53125-51.269532 59.773437-82.785157l-41.597656-59.273437c-8.285156-11.808594-20.691406-20.082032-34.777344-23.199219l-103.34375-22.859375h-29.527343l38.234374 86.089844c7.671876 17.273437 24.800782 28.410156 43.703126 28.410156 17.777343 0 34.085937 9.863281 42.347656 25.605469zm0 0" fill="#00388b"/><path d="m432.949219 440.964844-26.65625-93.449219-2.460938 47.492187c.203125.363282.40625.726563.601563 1.097657l25.183594 48.011719c.164062-.152344.324218-.304688.484374-.453126.957032-.890624 1.902344-1.792968 2.847657-2.699218zm0 0" fill="#002d83"/><path d="m107.566406 396.105469-25.1875 48.011719c-25.082031-23.160157-45.53125-51.269532-59.773437-82.785157l41.597656-59.273437c8.285156-11.808594 20.691406-20.082032 34.777344-23.199219l103.34375-22.859375h29.527343l-38.234374 86.089844c-7.671876 17.273437-24.800782 28.410156-43.703126 28.410156-17.777343 0-34.085937 9.863281-42.347656 25.605469zm0 0" fill="#00388b"/><path d="m297.964844 365.628906 91.894531-91.894531-80.183594-17.734375h-107.351562l-80.183594 17.734375 91.894531 91.894531c23.175782 23.175782 60.753906 23.175782 83.929688 0zm0 0" fill="#f1e12b"/><path d="m105.769531 347.515625-26.671875 93.496094c.953125.910156 1.902344 1.816406 2.867188 2.714843.136718.128907.277344.261719.417968.390626l25.183594-48.011719c.210938-.40625.433594-.800781.65625-1.199219zm0 0" fill="#002d83"/><path d="m309.675781 287.519531s-12.121093 27.703125-53.675781 27.703125-53.675781-27.703125-53.675781-27.703125l-15.003907-107.925781h137.359376zm0 0" fill="#ffbf9d"/><path d="m324.679688 179.59375h-137.359376l9.96875 71.707031 15.070313 15.160157c7.097656 7.144531 16.945313 11.238281 27.011719 11.238281h33.257812c10.066406 0 19.914063-4.09375 27.011719-11.238281l15.070313-15.160157zm0 0" fill="#f7ad8d"/><path d="m343.695312 112.972656 9.878907-2.808594c3.234375-.921874 6.675781.492188 8.332031 3.421876l9.101562 16.101562c1.9375 3.429688 2.125 7.578125.503907 11.171875l-13.179688 29.152344c-2 4.421875-6.40625 7.265625-11.261719 7.265625-6.824218 0-12.355468-5.53125-12.355468-12.355469v-40.066406c0-5.519531 3.667968-10.375 8.980468-11.882813zm0 0" fill="#ffbf9d"/><path d="m168.304688 112.972656-9.878907-2.808594c-3.234375-.921874-6.675781.492188-8.332031 3.421876l-9.101562 16.101562c-1.9375 3.429688-2.125 7.578125-.503907 11.171875l13.179688 29.152344c2 4.421875 6.40625 7.265625 11.261719 7.265625 6.824218 0 12.355468-5.53125 12.355468-12.355469v-40.066406c0-5.519531-3.667968-10.375-8.980468-11.882813zm0 0" fill="#f7ad8d"/><path d="m201.316406 31.59375c-21.210937 13.222656-34.066406 36.492188-34.066406 61.484375v94.878906c0 6.097657 2.414062 11.949219 6.710938 16.273438l49.039062 49.34375c4.332031 4.359375 10.226562 6.8125 16.375 6.8125h33.253906c6.148438 0 12.039063-2.453125 16.375-6.8125l49.035156-49.34375c4.300782-4.324219 6.714844-10.175781 6.714844-16.273438v-84.207031c-.003906-66.519531-73.191406-115.949219-143.4375-72.15625zm0 0" fill="#e83826"/><path d="m256 164.671875c-32.984375 0-61.882812 17.484375-77.933594 43.691406l44.929688 45.210938c4.335937 4.363281 10.230468 6.8125 16.375 6.8125h33.257812c6.144532 0 12.039063-2.449219 16.375-6.8125l44.929688-45.210938c-16.050782-26.207031-44.949219-43.691406-77.933594-43.691406zm0 0" fill="#ffd4bd"/><path d="m221.316406 31.59375c14.988282-9.34375 30.113282-14.445312 44.632813-16.039062-20.269531-2.261719-42.59375 2.300781-64.632813 16.039062-21.210937 13.222656-34.066406 36.492188-34.066406 61.484375v94.878906c0 6.097657 2.414062 11.949219 6.710938 16.273438l49.039062 49.34375c.886719.890625 1.839844 1.699219 2.84375 2.425781 0-.003906-38.59375-53-38.59375-68.042969v-94.878906c0-24.992187 12.855469-48.261719 34.066406-61.484375zm0 0" fill="#db2a17"/><path d="m188.613281 194.363281c-3.941406 4.308594-7.480469 8.992188-10.546875 14l44.929688 45.210938c.003906 0 .003906 0 .003906.003906.414062.414063.847656.8125 1.289062 1.191406.050782.042969.097657.085938.148438.128907.457031.382812.921875.753906 1.40625 1.101562-.007812-.007812-30.382812-41.722656-37.230469-61.636719zm0 0" fill="#ffbf9d"/><path d="m256 106.6875h-6.261719c-4.953125 0-8.816406 4.292969-8.292969 9.222656l6.261719 58.816406c.449219 4.242188 4.027344 7.460938 8.292969 7.460938s7.84375-3.21875 8.292969-7.460938l6.261719-58.816406c.523437-4.929687-3.339844-9.222656-8.292969-9.222656zm0 0" fill="#db2a17"/><path d="m256 164.671875c-3.144531 0-6.25.160156-9.3125.46875l1.019531 9.589844c.449219 4.238281 4.027344 7.457031 8.292969 7.457031s7.84375-3.21875 8.292969-7.457031l1.019531-9.589844c-3.0625-.308594-6.167969-.46875-9.3125-.46875zm0 0" fill="#ffbf9d"/><path d="m234.953125 205.796875c1.316406 1.214844 3.042969 1.890625 4.835937 1.890625h32.421876c1.792968 0 3.519531-.675781 4.835937-1.890625l2.597656-2.398437c1.429688-1.320313.496094-3.710938-1.453125-3.710938h-44.382812c-1.949219 0-2.882813 2.390625-1.453125 3.710938zm0 0" fill="#ffbf9d"/><path d="m371.882812 2.171875-11.011718 31.292969-104.871094 19.226562-104.871094-19.226562-11.011718-31.292969c-.457032-1.300781-1.683594-2.171875-3.0625-2.171875h-7.488282c-1.796875 0-3.25 1.453125-3.25 3.25v58.371094c0 1.339844.820313 2.539062 2.066406 3.027344l122.890626 47.960937c3.039062 1.1875 6.414062 1.1875 9.453124 0l122.890626-47.960937c1.246093-.488282 2.066406-1.6875 2.066406-3.027344v-58.371094c0-1.796875-1.453125-3.25-3.25-3.25h-7.488282c-1.378906 0-2.605468.871094-3.0625 2.171875zm0 0" fill="#f1e12b"/><path d="m151.128906 33.464844-11.011718-31.292969c-.457032-1.300781-1.683594-2.171875-3.0625-2.171875h-7.488282c-1.796875 0-3.25 1.453125-3.25 3.25v58.371094c0 1.339844.820313 2.539062 2.066406 3.027344l122.890626 47.960937c1.519531.59375 3.125.890625 4.726562.890625v-60.808594zm0 0" fill="#eedb00"/></svg>