<svg height="512pt" viewBox="0 0 512 512" width="512pt" xmlns="http://www.w3.org/2000/svg"><path d="m512 256c0 60.085938-20.703125 115.339844-55.363281 159.015625-46.894531 59.089844-119.339844-17.015625-200.636719-17.015625-81.382812 0-153.894531 76.023438-200.785156 16.828125-34.570313-43.644531-55.214844-98.824219-55.214844-158.828125 0-141.386719 114.613281-256 256-256s256 114.613281 256 256zm0 0" fill="#e83826"/><path d="m383 267c-20.667969-19.332031 16.667969-36.667969 15.332031-62.667969-1.332031-26-42.128906-28.785156-36.582031-39.574219h-211.5c5.546875 10.789063-35.25 13.574219-36.582031 39.574219s36 43.332031 15.332031 62.667969-74.726562 19.113281-68.667969 70.667969c6.058594 51.550781 103.335938 79.949219 195.667969 79.949219s189.609375-28.398438 195.667969-79.949219c6.058593-51.554688-48-51.335938-68.667969-70.667969zm0 0" fill="#eedb00"/><path d="m343.695312 115.285156 9.878907-2.808594c3.234375-.917968 6.675781.496094 8.332031 3.421876l9.101562 16.105468c1.9375 3.429688 2.125 7.578125.503907 11.167969l-13.179688 29.152344c-2 4.425781-6.40625 7.265625-11.261719 7.265625-6.824218 0-12.355468-5.53125-12.355468-12.355469v-40.0625c0-5.523437 3.667968-10.375 8.980468-11.886719zm0 0" fill="#ffcbbe"/><path d="m168.304688 115.285156-9.878907-2.808594c-3.234375-.917968-6.675781.496094-8.332031 3.421876l-9.101562 16.105468c-1.9375 3.429688-2.125 7.578125-.503907 11.167969l13.179688 29.152344c2 4.425781 6.40625 7.265625 11.261719 7.265625 6.824218 0 12.355468-5.53125 12.355468-12.355469v-40.0625c0-5.523437-3.667968-10.375-8.980468-11.886719zm0 0" fill="#f9b7aa"/><path d="m256 512c81.292969 0 153.726562-37.898438 200.621094-96.980469l-34.382813-80.542969c-4.601562-10.789062-14.0625-18.75-25.476562-21.445312l-90.628907-21.390625c-4.898437-1.160156-8.175781-5.777344-7.644531-10.785156l10.691407-101.265625h-106.359376l10.691407 101.265625c.53125 5.007812-2.746094 9.625-7.644531 10.785156l-90.628907 21.390625c-11.414062 2.695312-20.871093 10.65625-25.476562 21.445312l-34.382813 80.542969c46.894532 59.082031 119.328125 96.980469 200.621094 96.980469zm0 0" fill="#ebeaec"/><path d="m298.484375 280.855469h-84.96875l-82.96875 44.914062c-3.101563 1.679688-5.007813 4.941407-4.949219 8.464844l1.238282 72.429687 12.214843 77.117188c35.054688 18.035156 74.8125 28.21875 116.949219 28.21875s81.894531-10.183594 116.949219-28.21875l12.214843-77.117188 1.238282-72.429687c.0625-3.523437-1.847656-6.789063-4.945313-8.464844zm0 0" fill="#fefefe"/><path d="m350.644531 390.933594s-52.6875-105.070313-52.15625-110.078125l2.621094-24.855469h-90.21875l2.625 24.855469c.527344 5.007812-52.15625 110.078125-52.15625 110.078125l-1.023437 50.734375 38.058593 63.804687c18.515625 4.261719 37.792969 6.527344 57.605469 6.527344s39.089844-2.265625 57.605469-6.527344l38.058593-63.808594zm0 0" fill="#00388b"/><path d="m298.484375 280.855469 2.625-24.855469h-90.21875l2.625 24.855469c.378906 3.597656-26.707031 58.84375-41.992187 89.667969l43.476562 43.476562c22.644531 22.644531 59.355469 22.644531 82 0l43.476562-43.476562c-15.285156-30.824219-42.371093-86.070313-41.992187-89.667969zm0 0" fill="#8049bf"/><path d="m314.390625 317.121094h-22.449219c-.371094 0-.722656.144531-.988281.40625l-12.554687 12.558594c-.984376.980468-.082032 2.644531 1.28125 2.351562l38.15625-8.140625c-1.171876-2.433594-2.324219-4.828125-3.445313-7.175781zm0 0" fill="#6d36ab"/><path d="m221.046875 317.527344c-.265625-.261719-.621094-.40625-.988281-.40625h-22.449219c-1.121094 2.347656-2.273437 4.746094-3.445313 7.175781l38.15625 8.144531c1.359376.289063 2.265626-1.371094 1.28125-2.355468zm0 0" fill="#6d36ab"/><path d="m285.324219 267.578125 15.878906-12.441406 7.976563-75.546875h-106.359376l7.976563 75.546875 15.878906 12.441406c8.328125 6.527344 18.742188 10.121094 29.324219 10.121094s20.996094-3.59375 29.324219-10.121094zm0 0" fill="#f9b7aa"/><path d="m256 17.328125c-49.015625.003906-88.75 39.722656-88.75 88.738281l8.660156 89.839844c.855469 8.867188 5.308594 16.996094 12.320313 22.492188l47.695312 37.375c5.730469 4.488281 12.796875 6.925781 20.074219 6.925781s14.34375-2.4375 20.070312-6.925781l47.699219-37.375c7.011719-5.496094 11.464844-13.625 12.320313-22.492188l8.660156-89.839844c0-49.015625-39.734375-88.734375-88.75-88.738281zm0 0" fill="#ffddcf"/><g fill="#ffcbbe"><path d="m167.25 106.066406 8.660156 89.839844c.855469 8.867188 5.308594 16.996094 12.320313 22.492188l44.742187 35.058593c-.003906-.003906-28.972656-28.460937-38.300781-42.125-9.328125-13.667969-9.007813-42.332031-12.007813-73.667969-3-31.332031 15.667969-50.664062 24.335938-76l-7.875-23.71875c-19.480469 16.277344-31.875 40.746094-31.875 68.121094zm0 0"/><path d="m256 122.5c-3.089844 0-5.621094 2.445312-5.730469 5.53125l-1.503906 42.472656c-.144531 4.097656 3.136719 7.496094 7.234375 7.496094s7.378906-3.398438 7.234375-7.496094l-1.503906-42.472656c-.109375-3.085938-2.640625-5.53125-5.730469-5.53125zm0 0"/><path d="m236.769531 206.867188c.152344.085937.324219.132812.5.132812h37.460938c.175781 0 .347656-.046875.5-.132812l5.203125-3c.882812-.511719.523437-1.867188-.5-1.867188h-47.867188c-1.019531 0-1.382812 1.355469-.5 1.867188zm0 0"/></g><path d="m256 0c-58.3125.00390625-105.75 47.433594-105.75 105.734375v.820313l.777344 8.078124c1.828125-2.035156 4.679687-2.929687 7.398437-2.15625l9.707031 2.757813.007813.054687.164063-.003906 38.695312-53.617187s59.738281 67.457031 146.660156 96.832031c0 0 7.671875-14.5 8.089844-52.765625 0-58.300781-47.4375-105.73046875-105.75-105.734375zm0 0" fill="#f1e12b"/><path d="m256 0c-58.3125.00390625-105.75 47.433594-105.75 105.734375v.820313l.777344 8.078124c1.828125-2.035156 4.679687-2.929687 7.398437-2.15625l9.707031 2.757813.007813.054687.164063-.003906 38.695312-53.617187s14.332031-61.667969 49-61.667969zm0 0" fill="#eedb00"/><path d="m426.414062 440.417969-8.503906-32.535157c-.917968-3.515624-3.671875-6.253906-7.1875-7.15625l-25.34375-6.507812-.214844 12.449219-34.523437-15.730469c-4.742187-2.164062-10.339844-.070312-12.5 4.671875-2.164063 4.746094-.070313 10.34375 4.671875 12.503906l-6.15625-2.804687c-4.746094-2.164063-10.34375-.070313-12.503906 4.675781-2.160156 4.742187-.066406 10.339844 4.675781 12.5l6.15625 2.808594c-4.929687-2.25-10.789063.105469-12.746094 5.253906-1.785156 4.699219.640625 9.972656 5.210938 12.058594l5.863281 2.671875c-4.742188-2.164063-10.339844-.070313-12.5 4.671875-2.164062 4.746093-.070312 10.34375 4.671875 12.503906l47.332031 21.398437c20.5-10.53125 39.386719-23.753906 56.207032-39.191406-1.347657-1.375-2.261719-2.792968-2.609376-4.242187zm0 0" fill="#ffcbbe"/><path d="m85.585938 440.417969 8.503906-32.535157c.917968-3.515624 3.671875-6.253906 7.1875-7.15625l25.34375-6.507812.214844 12.449219 34.523437-15.730469c4.742187-2.164062 10.339844-.070312 12.5 4.671875 2.164063 4.746094.070313 10.34375-4.671875 12.503906l6.15625-2.804687c4.746094-2.164063 10.34375-.070313 12.503906 4.675781 2.160156 4.742187.066406 10.339844-4.675781 12.5l-6.15625 2.808594c4.929687-2.25 10.789063.105469 12.746094 5.253906 1.785156 4.699219-.640625 9.972656-5.210938 12.058594l-5.863281 2.671875c4.742188-2.164063 10.339844-.070313 12.5 4.671875 2.164062 4.746093.070312 10.34375-4.671875 12.503906l-47.332031 21.398437c-20.5-10.53125-39.386719-23.753906-56.207032-39.191406 1.347657-1.375 2.261719-2.792968 2.609376-4.242187zm0 0" fill="#ffcbbe"/></svg>