<svg id="Layer_1" enable-background="new 0 0 512 512" height="512" viewBox="0 0 512 512" width="512" xmlns="http://www.w3.org/2000/svg"><g><path d="m440.168 428.56c37.864-43.128 60.831-99.658 60.831-161.559 0-135.309-109.69-244.999-244.999-244.999s-244.999 109.69-244.999 244.999c0 61.901 22.967 118.431 60.831 161.559z" fill="#5c45bf"/><path d="m238.816 169.379h-69.512s-33.975 29.844-17.656 85.003c13.459 45.491-23.402 45.526-9.614 80.04s-33.007 23.813 13.58 86.328h83.202z" fill="#301e2a"/><path d="m369.767 334.422c13.788-34.514-23.073-34.549-9.614-80.04 16.319-55.159-17.656-85.003-17.656-85.003h-69.317v251.372h83.007c46.587-62.515-.207-51.814 13.58-86.329z" fill="#4a3040"/><path d="m211.226 461.133c-11.165-6.958-19.497-14.992-25.708-23.32-24.962-20.938-39.544-43.476-42.714-55.618-.212.07-.425.135-.636.212l-19.44 7.104c-20.984 7.668-38.744 21.055-51.783 38.048 37.402 43.071 89.592 72.949 148.667 81.746v-33.214c0-6.104-3.204-11.729-8.386-14.958z" fill="#f23f56"/><path d="m181.002 445.738c3.042-.175 5.839-1.617 7.703-3.915-1.117-1.327-2.183-2.664-3.186-4.009-24.962-20.938-39.544-43.476-42.714-55.618-.212.07-.425.135-.636.212l-19.44 7.104c-20.984 7.668-38.744 21.055-51.783 38.048 16.928 19.494 36.894 36.273 59.148 49.631 13.694-25.984 38.682-30.749 50.908-31.453z" fill="#e21e3f"/><path d="m441.055 427.56c-13.039-16.993-30.799-30.38-51.783-38.048l-19.44-7.104c-.205-.075-.411-.138-.617-.206-3.14 12.385-17.9 34.853-42.766 55.656-6.207 8.312-14.53 16.329-25.675 23.274-5.182 3.229-8.386 8.854-8.386 14.959v33.214c59.075-8.796 111.265-38.674 148.667-81.745z" fill="#f23f56"/><path d="m281.792 66.284c.828.825.738 2.162-.16 2.896-15.719 12.829-7.792 38.486 12.553 39.985 10.846.797 20.713-6.222 23.494-16.693.2-.752 1.076-1.087 1.733-.661l37.701 24.475c16.71-44.432-68.536-66.204-94.112-71.67 3.751 4.324-9.692-11.178 18.791 21.668z" fill="#f23f56"/><g fill="#e21e3f"><path d="m263.222 44.869c-.087-.1-.145-.167-.179-.206.039.046.104.12.179.206z"/><path d="m263.235 44.885c-.005-.005-.009-.011-.014-.016.005.005.01.011.014.016z"/><path d="m263.435 45.115c-.037-.043-.074-.086-.112-.129.034.04.071.082.112.129z"/><path d="m263.635 45.346c-.074-.085-.141-.162-.2-.231.076.087.147.169.2.231z"/><path d="m263.282 44.938c.009.01.019.022.029.033.262.302.38.438.409.472-.013-.015-.043-.05-.085-.097 1.473 1.699 5.986 6.903 18.157 20.938.828.825.738 2.162-.16 2.896-15.719 12.829-7.792 38.486 12.553 39.985 5.887.432 11.475-1.451 15.808-4.926-.385-.358-.79-.715-1.219-1.07-27.001-22.331-1.628-45.68-1.628-45.68v-.002c-17.425-6.682-34.783-10.871-44.145-12.872.108.124.2.23.281.323z"/><path d="m263.282 44.938c-.017-.02-.031-.036-.046-.053.028.033.058.067.088.101-.004-.005-.009-.01-.013-.015-.01-.01-.02-.022-.029-.033z"/><path d="m263.043 44.663c-.049-.056-.058-.067 0 0z"/></g><path d="m192.585 91.81c.649-.423 1.531-.098 1.733.661 2.78 10.47 12.663 17.486 23.494 16.693 20.304-1.498 28.296-27.14 12.552-39.985-.901-.736-.984-2.074-.159-2.896l18.79-21.669c-25.577 5.467-110.82 27.239-94.11 71.67z" fill="#e21e3f"/><path d="m334.092 202.558-.001-.001z" fill="#f9bd91"/><path d="m177.164 251.902s-4.887-30.927.742-49.345c-5.107-3.404-14.973-5.066-19.411-.728-9.085 8.882-2.429 22.295.757 30.767.978 2.601 1.609 5.232 1.894 7.869.62 5.728 3.725 14.111 16.602 13.913-.195-.825-.394-1.637-.584-2.476z" fill="#fcad6d"/><g><path d="m175.247 229.453c-2.112 1.034-4.476 1.63-6.986 1.63-4.521 0-8.593-1.892-11.493-4.917.857 2.324 1.759 4.505 2.483 6.43.978 2.601 1.609 5.232 1.894 7.869.62 5.728 3.725 14.111 16.602 13.913-.195-.825-.394-1.638-.584-2.476.001 0-1.615-10.244-1.916-22.449z" fill="#fd995b"/></g><path d="m353.503 201.83c-4.438-4.338-14.304-2.676-19.411.728 5.628 18.418.742 49.345.742 49.345-.19.839-.389 1.651-.584 2.476 12.877.198 15.982-8.186 16.602-13.913.285-2.636.916-5.267 1.894-7.869 3.185-8.473 9.842-21.885.757-30.767z" fill="#fcad6d"/><g><path d="m343.883 231.083c-2.567 0-4.984-.622-7.131-1.7-.297 12.236-1.918 22.519-1.918 22.519-.19.839-.389 1.651-.584 2.476 12.877.198 15.982-8.186 16.602-13.913.285-2.636.916-5.267 1.894-7.869.696-1.852 1.559-3.94 2.386-6.165-2.883 2.875-6.858 4.652-11.249 4.652z" fill="#fd995b"/></g><g><path d="m255.998 32.037c-1.937 0-3.507-1.57-3.507-3.507v-25.023c0-1.937 1.57-3.507 3.507-3.507s3.507 1.57 3.507 3.507v25.023c0 1.937-1.57 3.507-3.507 3.507z" fill="#00cbfe"/></g><g><path d="m264.899 14.807h-17.802c-1.937 0-3.507-1.57-3.507-3.507s1.57-3.507 3.507-3.507h17.802c1.937 0 3.507 1.57 3.507 3.507s-1.57 3.507-3.507 3.507z" fill="#00cbfe"/></g><path d="m253.215 39.544c1.469-1.694 4.098-1.694 5.567 0l5.253 6.06c1.24-2.241 1.982-5.007 1.982-8.014 0-7.435-4.486-13.462-10.019-13.462s-10.019 6.027-10.019 13.462c0 3.007.742 5.773 1.982 8.014z" fill="#ffe089"/><path d="m362.33 117.743-42.038-27.29c-1.577-1.023-3.695-.214-4.177 1.603-2.506 9.438-11.419 16.261-21.811 15.495-9.894-.729-18.075-8.536-19.214-18.391-.873-7.546 2.27-14.405 7.566-18.727 1.644-1.341 1.782-3.799.278-5.296l-24.152-27.86c-1.469-1.694-4.098-1.694-5.567 0l-24.152 27.86c-1.504 1.497-1.365 3.954.278 5.296 5.296 4.322 8.439 11.182 7.566 18.727-1.14 9.855-9.321 17.662-19.215 18.391-10.391.766-19.305-6.057-21.811-15.495-.482-1.817-2.601-2.627-4.177-1.603l-42.038 27.29c-1.658 1.076-2.33 3.171-1.608 5.011l15.298 38.977h92.642 92.642l15.298-38.977c.723-1.84.05-3.934-1.608-5.011z" fill="#fecb32"/><path d="m253.568 144.586 2.43-37.545c8.306-15.042 0-25.752 0-25.752v-23.8c-11.361-4.594-7.004-15.343-7.004-15.343l-19.931 22.991c-1.504 1.497-1.365 3.954.278 5.296 5.296 4.322 8.439 11.182 7.566 18.727-1.14 9.855-9.321 17.662-19.215 18.391-10.391.766-19.305-6.057-21.811-15.495-.482-1.817-2.601-2.627-4.177-1.603l-42.038 27.29c-1.658 1.076-2.33 3.171-1.608 5.011l15.298 38.977h68c-.919-20.017 22.212-17.145 22.212-17.145z" fill="#ffae1e"/><path d="m258.428 144.586 13.967-16.111c1.048-1.209 1.048-3.004 0-4.213l-13.967-16.111c-1.282-1.479-3.577-1.479-4.86 0l-13.967 16.111c-1.048 1.209-1.048 3.004 0 4.213l13.967 16.111c1.283 1.48 3.578 1.48 4.86 0z" fill="#00cbfe"/><path d="m260.125 132.624 6.651-7.673c.499-.576.499-1.431 0-2.006l-6.651-7.673c-.611-.704-1.704-.704-2.314 0l-6.651 7.673c-.499.576-.499 1.431 0 2.006l6.651 7.673c.61.705 1.703.705 2.314 0z" fill="#63dffc"/><ellipse cx="255.998" cy="69.39" fill="#00cbfe" rx="7.745" ry="11.9"/><ellipse cx="296.923" cy="133.152" fill="#f23f56" rx="10.871" ry="7.075" transform="matrix(.094 -.996 .996 .094 136.425 416.231)"/><ellipse cx="326.391" cy="135.76" fill="#f23f56" rx="8.489" ry="5.524" transform="matrix(.319 -.948 .948 .319 93.595 401.783)"/><path d="m208.027 133.818c.565 5.977 4.176 10.525 8.066 10.158 3.89-.368 6.586-5.511 6.021-11.489-.565-5.977-4.176-10.525-8.066-10.157-3.891.367-6.586 5.511-6.021 11.488z" fill="#e21e3f"/><path d="m180.366 137.523c1.496 4.443 5.052 7.256 7.944 6.283s4.023-5.365 2.527-9.808-5.052-7.256-7.944-6.283c-2.891.974-4.022 5.365-2.527 9.808z" fill="#e21e3f"/><path d="m329.005 370.263c-18.15-8.357-33.019-19.329-33.019-32.866 0-5.646 0-3.955 0-7.611-9.845 8.801-26.726 20.014-40.63 20.35-13.903-.336-30.785-11.549-40.63-20.35v7.611c0 13.266-14.278 24.07-31.931 32.362 10.993 29.766 39.618 50.991 73.204 50.991 33.396.001 61.876-20.987 73.006-50.487z" fill="#fcad6d"/><path d="m255.357 350.137c-13.903-.336-30.785-11.549-40.63-20.35v7.611c0 13.266-14.278 24.07-31.931 32.362 7.61 20.604 23.67 37.109 43.974 45.322l.297-4.831c21.058-18.989 27.383-43.252 29.005-60.148-.239.011-.479.028-.715.034z" fill="#fd995b"/><path d="m328.645 370.098c-11.37 29.016-39.598 49.574-72.645 49.574-33.24 0-61.606-20.796-72.844-50.08-4.799 2.27-35.897 10.921-40.988 12.816-1.044 11.723 19.954 48.903 64.153 76.007 8.291 5.084 13.292 14.165 13.292 23.891v27c11.872 1.768 24.021 2.694 36.387 2.694s24.515-.926 36.388-2.694v-27.001c0-9.736 5.018-18.816 13.317-23.906 43.677-26.787 65.141-63.613 64.127-75.991-5.155-1.884-36.294-10.042-41.187-12.31z" fill="#fcf6eb"/><path d="m183.155 369.592c-4.799 2.27-35.897 10.921-40.988 12.816-.869 9.76 13.555 37.163 43.912 61.708 1.767-1.096 3.214-2.683 4.072-4.659 9.406-21.673 36.105-16.016 36.105-16.016l.578-9.412c-20.026-8.083-35.927-24.24-43.679-44.437z" fill="#e0d5b7"/><ellipse cx="256" cy="420.022" fill="#fecb32" rx="11.694" ry="11.694" transform="matrix(.16 -.987 .987 .16 -199.496 605.705)"/><circle cx="278.463" cy="414.301" fill="#fecb32" r="11.694"/><ellipse cx="300.149" cy="405.733" fill="#fecb32" rx="11.694" ry="11.694" transform="matrix(.925 -.38 .38 .925 -131.655 144.478)"/><circle cx="318.467" cy="391.267" fill="#fecb32" r="11.694"/><ellipse cx="331.12" cy="371.643" fill="#fecb32" rx="11.694" ry="11.694" transform="matrix(.16 -.987 .987 .16 -88.606 639.203)"/><circle cx="233.537" cy="414.301" fill="#fecb32" r="11.694"/><ellipse cx="211.851" cy="405.733" fill="#fecb32" rx="11.694" ry="11.694" transform="matrix(.38 -.925 .925 .38 -243.949 447.529)"/><circle cx="193.533" cy="391.267" fill="#fecb32" r="11.694"/><ellipse cx="180.88" cy="371.643" fill="#fecb32" rx="11.694" ry="11.694" transform="matrix(.989 -.151 .151 .989 -54.175 31.665)"/><path d="m326.904 185.911c-.076-2.534-.306-6.04-.893-10.019h-140.025c-.587 3.979-.818 7.486-.893 10.019-.075 2.531-1.096 4.973-2.952 7.064-10.229 11.527-7.989 45.203-5.602 59.068 5.285 23.328 12.941 43.669 22.752 60.46 9.96 17.045 25.043 30.302 43.619 38.339 8.32 3.598 17.86 3.599 26.179 0 18.576-8.037 33.659-21.294 43.619-38.339 9.809-16.786 17.465-37.128 22.761-60.501 2.293-14.575 4.734-47.368-5.612-59.027-1.857-2.091-2.877-4.534-2.953-7.064z" fill="#fcd2ae"/><path d="m246.519 312.503c-9.811-16.791-17.466-37.132-22.751-60.46-2.387-13.865-4.627-47.541 5.602-59.068 1.857-2.091 2.877-4.533 2.952-7.064.076-2.533.306-6.04.893-10.019h-47.229c-.587 3.979-.818 7.486-.893 10.019-.075 2.531-1.096 4.973-2.952 7.064-10.229 11.527-7.989 45.203-5.602 59.068 5.285 23.328 12.941 43.669 22.752 60.46 9.96 17.045 25.043 30.302 43.619 38.339 8.32 3.598 17.86 3.599 26.179 0 3.649-1.579 7.158-3.366 10.525-5.337-13.775-8.062-25.092-19.305-33.095-33.002z" fill="#fcad6d"/><path d="m177.905 172.995-22.196 26.228s34.044 44.913 70.221 8.736c28.726-28.727 70.827 12.134 77.298-34.964z" fill="#4a3040"/><path d="m177.905 172.995-22.196 26.228s32.074 42.309 67.041 11.71c-7.397-20.687 8.606-33.908 8.606-33.908v-4.03z" fill="#301e2a"/><g><path d="m348.64 177.025h-185.284c-4.223 0-7.647-3.423-7.647-7.647 0-4.223 3.424-7.647 7.647-7.647h185.284c4.223 0 7.647 3.423 7.647 7.647s-3.424 7.647-7.647 7.647z" fill="#ffe089"/></g><path d="m223.71 169.379c0-4.223 3.424-7.647 7.647-7.647h-68c-4.223 0-7.647 3.423-7.647 7.647 0 4.223 3.424 7.647 7.647 7.647h68c-4.224-.001-7.647-3.424-7.647-7.647z" fill="#fecb32"/><g fill="#ffe089"><circle cx="184.785" cy="368.53" r="3.905"/><path d="m200.383 388.375c0 2.156-1.748 3.905-3.904 3.905s-3.904-1.748-3.904-3.905 1.748-3.905 3.904-3.905 3.904 1.749 3.904 3.905z"/><path d="m217.883 402.961c0 2.156-1.748 3.905-3.904 3.905s-3.904-1.748-3.904-3.905 1.748-3.905 3.904-3.905c2.156.001 3.904 1.749 3.904 3.905z"/><path d="m239.441 411.177c0 2.156-1.748 3.904-3.904 3.904s-3.904-1.748-3.904-3.904 1.748-3.904 3.904-3.904c2.156-.001 3.904 1.748 3.904 3.904z"/><path d="m329.12 368.53c0 2.156 1.748 3.904 3.904 3.904s3.904-1.748 3.904-3.904-1.748-3.905-3.904-3.905-3.904 1.748-3.904 3.905z"/><path d="m317.311 388.375c0 2.156 1.748 3.905 3.905 3.905 2.156 0 3.904-1.748 3.904-3.905s-1.748-3.905-3.904-3.905c-2.157 0-3.905 1.749-3.905 3.905z"/><path d="m299.811 402.961c0 2.156 1.748 3.905 3.905 3.905 2.156 0 3.904-1.748 3.904-3.905s-1.748-3.905-3.904-3.905c-2.157.001-3.905 1.749-3.905 3.905z"/><path d="m278.463 412.677c0 2.156 1.748 3.904 3.904 3.904s3.904-1.748 3.904-3.904-1.748-3.904-3.904-3.904c-2.156-.001-3.904 1.748-3.904 3.904z"/><path d="m263.039 418.205c0 2.156-1.748 3.905-3.905 3.905-2.156 0-3.904-1.748-3.904-3.905 0-2.156 1.748-3.904 3.904-3.904 2.157 0 3.905 1.748 3.905 3.904z"/></g><path d="m260.745 65.339c0 1.884-1.527 3.411-3.411 3.411s-3.411-1.527-3.411-3.411 1.527-3.411 3.411-3.411 3.411 1.527 3.411 3.411z" fill="#63dffc"/></g></svg>