<svg id="Layer_1" enable-background="new 0 0 512 512" height="512" viewBox="0 0 512 512" width="512" xmlns="http://www.w3.org/2000/svg"><g><path d="m434.284 435.03c41.358-43.866 66.715-102.982 66.715-168.028 0-135.309-109.69-244.999-244.999-244.999s-244.999 109.689-244.999 244.998c0 65.046 25.358 124.163 66.715 168.028h356.568z" fill="#3d2736"/><path d="m257 348.62h75.152v37.37h-75.152z" fill="#e0d5b7"/><path d="m179.848 348.62h76.152v37.37h-76.152z" fill="#d8c69a"/><path d="m320.127 379.568c-9.031-7.314-11.916-20.584-12.703-30.945-5.902 6.82-11.58 11.756-15.588 14.868-21.092 16.38-50.726 16.266-71.673 0-4.008-3.112-9.686-8.048-15.588-14.871-.787 10.361-3.671 23.633-12.703 30.948-3.388.633-6.714 1.347-10.012 2.102-1.372 4.656-2.153 9.659-1.992 14.945.54 17.79 11.34 34.777 32.103 50.487 22.127 16.742 32.68 43.272 37.716 64.819 2.098.053 4.202.08 6.313.08s4.215-.027 6.314-.08c5.036-21.546 15.589-48.076 37.715-64.819 20.762-15.71 31.562-32.696 32.103-50.486.161-5.286-.62-10.29-1.992-14.947-3.298-.755-6.625-1.468-10.013-2.101z" fill="#fcad6d"/><path d="m254.292 375.698c-12.107-.353-24.111-4.428-34.128-12.207-4.008-3.112-9.686-8.048-15.588-14.871-.787 10.361-3.671 23.633-12.703 30.948-3.388.633-6.714 1.347-10.012 2.102-1.372 4.656-2.153 9.659-1.992 14.945.484 15.959 9.231 31.27 26.013 45.594 33.819-14.138 44.837-46.207 48.41-66.511z" fill="#fd995b"/><path d="m198.965 435.774c3.785 3.842 8.109 7.622 13.007 11.328 22.127 16.742 32.68 43.272 37.716 64.819 2.098.053 4.202.08 6.313.08s4.215-.027 6.314-.08c5.036-21.546 15.589-48.076 37.715-64.819 4.897-3.705 9.219-7.484 13.003-11.325-14.974 13.877-35.005 22.371-57.032 22.371-22.03-.001-42.062-8.495-57.036-22.374z" fill="#ff4155"/><path d="m198.965 435.774c3.785 3.842 8.109 7.622 13.007 11.328 22.127 16.742 32.68 43.272 37.716 64.819 2.098.053 4.202.08 6.313.08s4.215-.027 6.314-.08c5.036-21.546 15.589-48.076 37.715-64.819 4.897-3.705 9.219-7.484 13.003-11.325-14.974 13.877-35.005 22.371-57.032 22.371-22.03-.001-42.062-8.495-57.036-22.374z" fill="#f23f56"/><path d="m243.235 490.895c2.8 7.194 4.892 14.349 6.452 21.025 2.098.053 4.202.08 6.313.08s4.215-.027 6.314-.08c5.036-21.546 15.589-48.076 37.715-64.819 4.897-3.705 9.219-7.484 13.003-11.325-14.974 13.877-35.005 22.371-57.032 22.371 0 0 12.996 20.217-12.765 32.748z" fill="#e21e3f"/><path d="m382.219 424.119c-6.106 30.407-29.202 56.691-54.103 77.086 41.471-12.755 78.241-36.226 107.099-67.176-20.234-13.181-37.568-21.458-51.006-26.632-.163 5.226-.799 10.79-1.99 16.722z" fill="#f23f56"/><path d="m129.781 424.119c-1.191-5.932-1.827-11.496-1.99-16.722-13.438 5.175-30.773 13.451-51.006 26.632 28.858 30.95 65.627 54.421 107.099 67.176-24.901-20.395-47.997-46.679-54.103-77.086z" fill="#e21e3f"/><path d="m318.05 334.167c-3.726 6.026-7.732 11.205-11.609 15.569 16.097 13.792 48.383 53.752-7.448 95.997-22.701 17.177-33.412 44.301-38.47 66.21 24.554-.445 48.223-4.502 70.504-11.663 24.178-20.263 46.322-46.216 52.335-76.161 12.528-62.385-35.579-84.595-65.312-89.952z" fill="#fcf6eb"/><path d="m213.007 445.733c-55.832-42.246-23.543-82.208-7.446-95.998-3.875-4.364-7.879-9.541-11.604-15.569-29.733 5.355-77.847 27.564-65.319 89.953 6.013 29.945 28.157 55.898 52.335 76.161 22.281 7.161 45.95 11.218 70.504 11.663-5.058-21.909-15.769-49.033-38.47-66.21z" fill="#fcf6eb"/><path d="m205.56 349.735c-3.875-4.364-7.879-9.541-11.604-15.569-29.733 5.355-77.847 27.564-65.319 89.953 3.816 19.001 14.131 36.392 27.334 51.745 4.305-51.886 51.663-34.414 51.663-34.414l.001-.005c-48.28-40.637-17.625-78.387-2.075-91.71z" fill="#e0d5b7"/><path d="m174.48 233.462v.002z" fill="#4a3040"/><g fill="#f2e9d6"><path d="m163.913 212.48c1.149 10.786 2.967 18.698 2.967 18.698 2.688.179 5.502 1.268 7.601 2.285.514-3.198 1.353-6.347 2.538-9.391.903-2.319 2.031-4.662 3.442-6.876.945-1.482 1.686-3.069 2.227-4.717h-18.775z"/><path d="m329.32 212.48c.537 1.648 1.275 3.234 2.22 4.716 1.457 2.285 2.612 4.708 3.53 7.1 1.14 2.974 1.951 6.047 2.452 9.167 2.645-1.282 6.426-2.678 9.661-2.22.19-6.595.582-13.433.937-18.762h-18.8z"/></g><path d="m352.965 233.024c-4.008-3.673-11.993-1.811-15.445.438.756 4.71.799 9.528.146 14.286l-4.074 29.671c0 2.392-.075 4.738-.214 7.044 9.934 2.996 14.868-5.922 15.7-12.042.358-2.635.943-5.231 1.754-7.765 2.643-8.253 12.176-22.428 2.133-31.632z" fill="#fcad6d"/><path d="m345.243 261.296c-3.365 0-6.48-1.057-9.046-2.846l-2.605 18.969c0 2.392-.075 4.738-.214 7.044 9.934 2.996 14.868-5.922 15.7-12.042.358-2.635.943-5.231 1.754-7.765.51-1.592 1.277-3.406 2.11-5.361-2.28 1.271-4.903 2.001-7.699 2.001z" fill="#fd995b"/><path d="m159.035 233.024c4.008-3.673 11.993-1.811 15.445.438-.756 4.71-.799 9.528-.146 14.286l4.074 29.671c0 2.392.075 4.738.214 7.044-9.934 2.996-14.869-5.922-15.7-12.042-.358-2.635-.943-5.231-1.754-7.765-2.643-8.253-12.176-22.428-2.133-31.632z" fill="#fcad6d"/><path d="m175.803 258.45c-2.566 1.789-5.68 2.846-9.046 2.846-2.796 0-5.419-.73-7.699-2.002.833 1.955 1.6 3.769 2.11 5.361.811 2.534 1.397 5.131 1.754 7.765.831 6.12 5.766 15.038 15.7 12.042-.139-2.306-.214-4.652-.214-7.044z" fill="#fd995b"/><path d="m335.666 224.066c-1.828-4.77-4.264-7.759-5.662-11.586h-147.995c-1.383 3.768-3.784 6.733-5.587 11.36-2.909 7.475-3.852 15.77-2.722 23.988l4.068 29.59c0 49.002 29.649 77.316 42.396 87.216 20.946 16.266 50.58 16.38 71.673 0 12.748-9.9 42.396-38.214 42.39-87.129l4.074-29.671c1.117-8.137.206-16.355-2.635-23.768z" fill="#fcd2ae"/><path d="m267.344 364.635c-12.748-9.9-42.396-38.214-42.396-87.216l-4.068-29.59c-1.13-8.219-.187-16.513 2.722-23.988 1.803-4.627 4.205-7.592 5.587-11.36h-47.18c-1.383 3.768-3.784 6.733-5.587 11.36-2.909 7.475-3.852 15.77-2.722 23.988l4.068 29.59c0 49.002 29.649 77.316 42.396 87.216 17.14 13.31 40.095 15.798 59.429 7.29-4.302-1.892-8.422-4.318-12.249-7.29z" fill="#fcad6d"/><g><path d="m256 32.338c-1.955 0-3.54-1.585-3.54-3.54v-25.258c0-1.955 1.585-3.54 3.54-3.54s3.54 1.585 3.54 3.54v25.259c0 1.954-1.585 3.539-3.54 3.539z" fill="#00cbfe"/></g><g><path d="m264.985 14.946h-17.97c-1.955 0-3.54-1.585-3.54-3.54s1.585-3.54 3.54-3.54h17.97c1.955 0 3.54 1.585 3.54 3.54s-1.585 3.54-3.54 3.54z" fill="#00cbfe"/></g><path d="m256 38.503c3.464 0 6.768.879 9.794 2.462.229-1.098.353-2.253.353-3.445 0-7.271-4.543-13.165-10.148-13.165-5.604 0-10.148 5.894-10.148 13.165 0 1.192.124 2.347.353 3.445 3.028-1.583 6.332-2.462 9.796-2.462z" fill="#ffe089"/><path d="m256 24.355c-5.604 0-10.148 5.894-10.148 13.165 0 1.192.124 2.347.353 3.445 2.869-1.5 5.989-2.359 9.256-2.445.317-.33.538-.509.538-.509 0-9.788 7.285-9.575 7.335-9.573-1.847-2.511-4.447-4.083-7.334-4.083z" fill="#fecb32"/><g><path d="m278.462 54.466c-4.592-9.861-12.933-16.455-22.462-16.455s-17.869 6.594-22.462 16.455c14.379-5.826 30.548-5.823 44.924 0z" fill="#fecb32"/></g><path d="m256 38.011c-9.529 0-17.869 6.594-22.462 16.455 7.458-3.021 15.398-4.461 23.319-4.348-.225-.32-.504-.654-.857-1.007-6.153-6.154 0-11.1 0-11.1z" fill="#ffae1e"/><g fill="#f23f56"><path d="m297.785 66.137-.346-.333c-23.149-22.25-59.711-22.266-82.879 0l-.346.333 25.151 27.457c2.034 2.221 1.899 5.695-.301 7.744-14.496 13.504-9.816 30.539-9.832 34.328l.051.092c3.341 5.961 11.255 15.96 26.717 15.96 15.461 0 23.375-10.002 26.716-15.964l.051-.092c-.016-3.708 4.666-20.818-9.832-34.324-2.2-2.05-2.335-5.524-.301-7.744z"/><path d="m344.497 115.327c-2.536-3.271-2.051-8.007 1.105-10.782l.38-.334-.345-.37c-5.413-5.801-12.335-9.75-20.02-11.42-7.259-1.578-11.358-5.693-12.595-6.485l7.539 11.993c1.602 2.549.841 5.944-1.695 7.57-1.952 1.251-3.782 2.717-5.437 4.357-10.809 10.708-9.717 23.774-10.248 26.12l.076.134c9.365 16.508 30.913 20.823 45.796 8.68l.135-.11.035-.171c3.13-15.044-.842-24.173-4.726-29.182z"/><path d="m193.134 105.498c-2.537-1.625-3.297-5.021-1.694-7.57l7.559-12.025c-1.403.904-5.326 4.929-12.637 6.521-7.675 1.672-14.591 5.62-19.998 11.417l-.345.37.38.334c3.156 2.775 3.641 7.511 1.105 10.782-3.884 5.009-7.856 14.137-4.726 29.181l.036.174.612.486c14.407 11.437 35.657 7.456 44.966-8.467l.427-.731c-.496-2.188.71-19.963-15.685-30.472z"/></g><path d="m256 151.226c-19.476 0-26.398-16.242-26.875-16.737l2.199 24.311c1.028 11.371 10.414 19.945 21.831 19.945h5.69c11.417 0 20.802-8.574 21.831-19.945l2.199-24.312c-.491.509-7.39 16.737-26.875 16.738z" fill="#e21e3f"/><path d="m208.743 135.127-.776 1.327c-9.196 15.73-30.108 19.547-44.235 8.331l-1.085-.861c1.389 6.032.204 1.128 4.887 18.617 2.577 9.542 11.279 16.206 21.162 16.206 12.876 0 22.99-11.074 21.831-23.894z" fill="#e21e3f"/><path d="m324.274 150.722c-15.1-2.832-20.663-15.2-21.017-15.596l-1.784 19.725c-1.16 12.824 8.959 23.894 21.831 23.894 9.884 0 18.586-6.664 21.162-16.207 5.892-21.997 2.578-9.108 4.887-18.616-.541.275-9.966 9.633-25.079 6.8z" fill="#e21e3f"/><path d="m378.281 82.579-32.025 20.842c-4.117 2.679-5.157 8.326-2.148 12.208 4.295 5.539 8.16 15.403 3.928 31.802l-4.045 14.981c-2.524 9.348-11.004 15.842-20.687 15.842-12.596 0-22.476-10.813-21.341-23.358l2.161-23.891c.71-7.842 4.057-15.258 9.651-20.8 1.534-1.519 3.308-2.98 5.357-4.293 2.773-1.777 3.599-5.456 1.846-8.245l-20.339-32.355c-.566-.901-1.834-1.015-2.553-.231l-25.813 28.181c-2.222 2.426-2.079 6.193.329 8.436 2.924 2.725 5.049 5.708 6.593 8.592 3.068 5.73 4.265 12.277 3.68 18.751l-2.688 29.715c-.999 11.041-10.254 19.498-21.341 19.498h-5.69c-11.087 0-20.342-8.456-21.341-19.498l-2.688-29.715c-.586-6.473.612-13.021 3.679-18.751 1.544-2.884 3.669-5.867 6.594-8.592 2.407-2.243 2.551-6.01.329-8.436l-25.814-28.181c-.719-.785-1.987-.67-2.553.231l-20.338 32.355c-1.753 2.789-.928 6.468 1.845 8.245 2.049 1.313 3.823 2.773 5.357 4.293 5.594 5.541 8.941 12.958 9.651 20.8l2.161 23.891c1.135 12.545-8.745 23.358-21.341 23.358-9.683 0-18.163-6.494-20.687-15.842l-4.045-14.981c-4.232-16.399-.367-26.263 3.928-31.802 3.01-3.882 1.969-9.529-2.147-12.208l-32.025-20.842c-1.322-.86-3.007.367-2.595 1.889l31.289 115.458h187.175l31.289-115.458c.41-1.522-1.276-2.749-2.598-1.889z" fill="#fecb32"/><path d="m378.281 82.579-32.025 20.842c-4.117 2.679-5.157 8.326-2.148 12.208 4.024 5.19 7.671 14.177 4.633 28.779v.001s1.228 11.277 13.91 7.309l18.224-67.25c.414-1.522-1.272-2.749-2.594-1.889z" fill="#ffe089"/><path d="m231.814 158.756-2.688-29.715c-.586-6.473.612-13.021 3.679-18.751 1.544-2.884 3.669-5.867 6.594-8.592 2.407-2.243 2.551-6.01.329-8.436l-25.814-28.181c-.719-.785-1.987-.67-2.553.231l-20.338 32.355c-1.753 2.789-.928 6.468 1.845 8.245 2.049 1.313 3.823 2.773 5.357 4.293 5.594 5.541 8.941 12.958 9.651 20.8l2.161 23.891c1.135 12.545-8.745 23.358-21.341 23.358-9.683 0-18.163-6.494-20.687-15.842l-4.045-14.981c-4.232-16.399-.367-26.263 3.928-31.802 3.01-3.882 1.969-9.529-2.147-12.208l-32.025-20.842c-1.322-.86-3.007.367-2.595 1.889l31.289 115.458h83.09c-.086-.198-.155-.4-.251-.596-7.582-15.437 7.904-21.076 7.904-21.076-11.088 0-20.344-8.457-21.343-19.498z" fill="#ffae1e"/><path d="m223.412 97.443c.431 5.323-2.731 9.922-7.062 10.273-4.331.35-8.191-3.681-8.621-9.004-.431-5.323 2.731-9.922 7.062-10.273s8.191 3.68 8.621 9.004z" fill="#039ae5"/><ellipse cx="296.429" cy="98.077" fill="#00cbfe" rx="9.67" ry="7.867" transform="matrix(.081 -.997 .997 .081 174.778 385.636)"/><path d="m147.938 113.949c1.318 5.501-1.039 10.781-5.264 11.794-4.225 1.012-8.719-2.627-10.037-8.128s1.039-10.781 5.264-11.794c4.225-1.012 8.719 2.627 10.037 8.128z" fill="#039ae5"/><path d="m364.062 113.949c-1.318 5.501 1.039 10.781 5.264 11.794 4.225 1.012 8.719-2.627 10.037-8.128s-1.039-10.781-5.264-11.794c-4.225-1.012-8.719 2.627-10.037 8.128z" fill="#00cbfe"/><path d="m227.171 181.204c0 3.44-2.788 6.228-6.228 6.228s-6.228-2.788-6.228-6.228 2.788-6.228 6.228-6.228 6.228 2.788 6.228 6.228z" fill="#e21e3f"/><path d="m297.285 181.204c0 3.44-2.788 6.228-6.228 6.228s-6.228-2.788-6.228-6.228 2.788-6.228 6.228-6.228 6.228 2.788 6.228 6.228z" fill="#f23f56"/><g><path d="m349.513 214.768h-187.026c-4.263 0-7.719-3.456-7.719-7.719s3.456-7.719 7.719-7.719h187.026c4.263 0 7.719 3.456 7.719 7.719s-3.456 7.719-7.719 7.719z" fill="#ffe089"/></g><path d="m237.533 207.049c0-4.263 3.456-7.719 7.719-7.719h-82.764c-4.263 0-7.719 3.456-7.719 7.719s3.456 7.719 7.719 7.719h82.764c-4.264 0-7.719-3.456-7.719-7.719z" fill="#fecb32"/></g></svg>