<svg height="512pt" viewBox="0 0 512 512" width="512pt" xmlns="http://www.w3.org/2000/svg"><path d="m512 256c0 37.496094-8.0625 73.109375-22.546875 105.203125-40.132813 88.914063-129.566406 2.796875-233.453125 2.796875-104.121094 0-193.726562 85.839844-233.726562-3.398438-14.3125-31.9375-22.273438-67.339843-22.273438-104.601562 0-141.386719 114.613281-256 256-256s256 114.613281 256 256zm0 0" fill="#333941"/><path d="m447.796875 302.058594c-8.285156-11.808594-20.691406-20.082032-34.777344-23.199219l-103.34375-22.859375h-107.351562l-103.34375 22.859375c-14.085938 3.117187-26.492188 11.390625-34.777344 23.199219l-41.597656 59.273437c40.15625 88.84375 129.554687 150.667969 233.394531 150.667969s193.238281-61.824219 233.394531-150.667969zm0 0" fill="#ebeaec"/><path d="m385.082031 300.304688-71.023437-44.304688h-116.117188l-71.023437 44.304688c-2.09375 1.304687-3.628907 3.339843-4.316407 5.710937l-32.269531 111.652344 48.71875 66.113281c35.054688 18.035156 74.8125 28.21875 116.949219 28.21875s81.894531-10.183594 116.949219-28.21875l48.71875-66.113281-32.269531-111.652344c-.6875-2.371094-2.222657-4.40625-4.316407-5.710937zm0 0" fill="#fefefe"/><path d="m256 256h-58.058594l-67.609375 132.332031v53.332031l68.082031 63.828126c18.511719 4.257812 37.785157 6.507812 57.585938 6.507812s39.074219-2.25 57.585938-6.503906l68.082031-63.828125v-53.332031l-67.609375-132.335938zm0 0" fill="#3d4751"/><path d="m170.332031 441.667969v-53.332031l67.609375-132.335938h-40l-67.609375 132.332031v53.332031l68.082031 63.828126c15.101563 3.472656 30.71875 5.582031 46.703126 6.253906zm0 0" fill="#333941"/><path d="m342 363.5c-6.015625 15.945312-21.28125 26.5-38.324219 26.5h-95.351562c-17.042969 0-32.308594-10.554688-38.324219-26.5-3.242188-8.59375-9.175781-15.617188-16.621094-20.273438l-23.046875 45.109376v53.332031l68.082031 63.828125c18.511719 4.253906 37.785157 6.503906 57.585938 6.503906s39.074219-2.25 57.585938-6.503906l68.082031-63.828125v-53.332031l-23.046875-45.109376c-7.445313 4.65625-13.378906 11.679688-16.621094 20.273438zm0 0" fill="#00adfc"/><path d="m170.332031 441.667969v-53.332031l6.621094-12.960938c-2.917969-3.472656-5.289063-7.46875-6.953125-11.875-3.242188-8.59375-9.175781-15.617188-16.621094-20.269531l-23.046875 45.105469v53.332031l68.082031 63.828125c15.101563 3.472656 30.714844 5.582031 46.703126 6.25zm0 0" fill="#00a5fb"/><path d="m309.675781 287.519531s-12.121093 27.703125-53.675781 27.703125-53.675781-27.703125-53.675781-27.703125l-15.003907-107.925781h137.359376zm0 0" fill="#ffbf9d"/><path d="m324.679688 179.59375h-137.359376l9.96875 71.707031 15.070313 15.160157c7.097656 7.144531 16.945313 11.238281 27.011719 11.238281h33.257812c10.066406 0 19.914063-4.09375 27.011719-11.238281l15.070313-15.160157zm0 0" fill="#f7ad8d"/><path d="m343.695312 112.972656 9.878907-2.808594c3.234375-.921874 6.675781.492188 8.332031 3.421876l9.101562 16.101562c1.9375 3.429688 2.125 7.578125.503907 11.171875l-13.179688 29.152344c-2 4.421875-6.40625 7.265625-11.261719 7.265625-6.824218 0-12.355468-5.53125-12.355468-12.355469v-40.066406c0-5.519531 3.667968-10.375 8.980468-11.882813zm0 0" fill="#ffbf9d"/><path d="m168.304688 112.972656-9.878907-2.808594c-3.234375-.921874-6.675781.492188-8.332031 3.421876l-9.101562 16.101562c-1.9375 3.429688-2.125 7.578125-.503907 11.171875l13.179688 29.152344c2 4.421875 6.40625 7.265625 11.261719 7.265625 6.824218 0 12.355468-5.53125 12.355468-12.355469v-40.066406c0-5.519531-3.667968-10.375-8.980468-11.882813zm0 0" fill="#f7ad8d"/><path d="m201.316406 31.59375c-21.210937 13.222656-34.066406 36.492188-34.066406 61.484375v94.878906c0 6.097657 2.414062 11.949219 6.710938 16.273438l49.039062 49.34375c4.332031 4.359375 10.226562 6.8125 16.375 6.8125h33.253906c6.148438 0 12.039063-2.453125 16.375-6.8125l49.035156-49.34375c4.300782-4.324219 6.714844-10.175781 6.714844-16.273438v-84.207031c-.003906-66.519531-73.191406-115.949219-143.4375-72.15625zm0 0" fill="#ffd4bd"/><g fill="#ffbf9d"><path d="m220.066406 31.59375c15.214844-9.484375 30.566406-14.589844 45.285156-16.101562-20.109374-2.105469-42.210937 2.496093-64.035156 16.101562-21.210937 13.222656-34.066406 36.492188-34.066406 61.484375v94.878906c0 6.097657 2.410156 11.949219 6.710938 16.273438l49.035156 49.34375c-.003906-.007813-36.996094-60.441407-36.996094-65.617188v-94.878906c0-24.992187 12.855469-48.261719 34.066406-61.484375zm0 0"/><path d="m234.953125 205.796875c1.316406 1.214844 3.042969 1.890625 4.835937 1.890625h32.421876c1.792968 0 3.519531-.675781 4.835937-1.890625l2.597656-2.398437c1.429688-1.320313.496094-3.710938-1.453125-3.710938h-44.382812c-1.949219 0-2.882813 2.390625-1.453125 3.710938zm0 0"/><path d="m256 106.6875h-6.261719c-4.953125 0-8.816406 4.292969-8.292969 9.222656l6.261719 58.816406c.449219 4.242188 4.027344 7.460938 8.292969 7.460938s7.84375-3.21875 8.292969-7.460938l6.261719-58.816406c.523437-4.929687-3.339844-9.222656-8.292969-9.222656zm0 0"/><path d="m435.78125 375h-26.445312l3.398437 11.753906-.226563.355469-37.351562-6.648437c-5.132812-.914063-10.035156 2.507812-10.945312 7.640624-.914063 5.132813 2.503906 10.035157 7.636718 10.945313l-6.660156-1.183594c-5.132812-.914062-10.035156 2.503907-10.949219 7.636719-.914062 5.132812 2.507813 10.035156 7.640625 10.949219l6.660156 1.183593c-5.335937-.949218-10.421874 2.789063-11.035156 8.261719-.5625 4.996094 3.097656 9.5 8.046875 10.382813l6.34375 1.128906c-5.132812-.914062-10.035156 2.503906-10.949219 7.640625-.914062 5.128906 2.507813 10.03125 7.640626 10.945313l38.074218 6.984374c20.605469-15.027343 38.894532-33.046874 54.199219-53.4375l-16.332031-29.394531c-1.765625-3.175781-5.113282-5.144531-8.746094-5.144531zm0 0"/><path d="m146.816406 397.863281-6.664062 1.183594c5.132812-.914063 8.550781-5.8125 7.640625-10.945313-.914063-5.132812-5.816407-8.550781-10.949219-7.640624l-37.347656 6.648437-.226563-.355469 3.394531-11.753906h-26.445312c-3.632812 0-6.980469 1.96875-8.742188 5.144531l-16.332031 29.398438c15.304688 20.386719 33.589844 38.40625 54.199219 53.433593l38.074219-6.984374c5.132812-.914063 8.550781-5.8125 7.636719-10.945313-.914063-5.132813-5.8125-8.554687-10.945313-7.640625l6.34375-1.128906c4.949219-.878906 8.605469-5.386719 8.046875-10.382813-.613281-5.472656-5.699219-9.210937-11.035156-8.257812l6.660156-1.1875c5.132812-.914063 8.550781-5.816407 7.640625-10.945313-.914063-5.132812-5.816406-8.554687-10.949219-7.640625zm0 0"/></g><path d="m256 0c-57.207031 0-103.75 46.539062-103.75 103.746094v.722656l.738281 7.660156 14.800781 44.792969c10.058594 0 18.210938-8.152344 18.210938-18.210937v-54.378907l20.832031-20.832031h98.335938l20.832031 20.832031v54.378907c0 10.054687 8.152344 18.210937 18.210938 18.210937h.539062l14.261719-44.792969.738281-7.664062v-.71875c0-57.207032-46.542969-103.746094-103.75-103.746094zm0 0" fill="#bd200f"/><path d="m286.128906 116.167969h-60.257812c-32.078125 0-58.082032-26.007813-58.082032-58.082031v-53.085938c0-2.761719 2.238282-5 5-5h113.339844c32.078125 0 58.082032 26.003906 58.082032 58.082031s-26.003907 58.085938-58.082032 58.085938zm0 0" fill="#e83826"/><path d="m197.789062 58.082031v-53.082031c0-2.761719 2.238282-5 5-5h-30c-2.761718 0-5 2.238281-5 5v53.082031c0 32.078125 26.003907 58.082031 58.082032 58.082031h30c-32.078125.003907-58.082032-26.003906-58.082032-58.082031zm0 0" fill="#db2a17"/></svg>