<svg height="512pt" viewBox="0 0 512 512" width="512pt" xmlns="http://www.w3.org/2000/svg"><path d="m512 256c0 141.386719-114.613281 256-256 256s-256-114.613281-256-256 114.613281-256 256-256 256 114.613281 256 256zm0 0" fill="#eedb00"/><path d="m256 40h-72.175781c-33.039063 0-59.820313 26.78125-59.820313 59.820312v177.882813c33.039063 0 59.820313-26.785156 59.820313-59.824219v-39.027344zm0 0" fill="#0092e2"/><path d="m256 40h72.175781c33.039063 0 59.820313 26.78125 59.820313 59.820312v177.882813c-33.039063 0-59.820313-26.785156-59.820313-59.824219v-39.027344zm0 0" fill="#00a5fb"/><path d="m358.617188 113.816406 13.453124-73.84375c3.25-17.851562-8.585937-34.957031-26.433593-38.210937l-2.90625-.527344c-2.75-.503906-5.515625.789063-6.894531 3.222656l-48.515626 85.582031 50.789063 32.679688c8.054687 5.179688 18.792969.519531 20.507813-8.902344zm0 0" fill="#ebeaec"/><path d="m153.382812 113.816406-13.453124-73.84375c-3.25-17.851562 8.585937-34.957031 26.433593-38.210937l2.90625-.527344c2.75-.503906 5.515625.789063 6.894531 3.222656l48.515626 85.582031-50.789063 32.679688c-8.054687 5.179688-18.792969.519531-20.507813-8.902344zm0 0" fill="#ebeaec"/><path d="m343.695312 115.285156 9.878907-2.808594c3.234375-.917968 6.675781.496094 8.332031 3.421876l9.101562 16.105468c1.9375 3.429688 2.125 7.578125.503907 11.167969l-13.179688 29.152344c-2 4.425781-6.40625 7.265625-11.261719 7.265625-6.824218 0-12.355468-5.53125-12.355468-12.355469v-40.0625c0-5.523437 3.667968-10.375 8.980468-11.886719zm0 0" fill="#ffcbbe"/><path d="m168.304688 115.285156-9.878907-2.808594c-3.234375-.917968-6.675781.496094-8.332031 3.421876l-9.101562 16.105468c-1.9375 3.429688-2.125 7.578125-.503907 11.167969l13.179688 29.152344c2 4.425781 6.40625 7.265625 11.261719 7.265625 6.824218 0 12.355468-5.53125 12.355468-12.355469v-40.0625c0-5.523437-3.667968-10.375-8.980468-11.886719zm0 0" fill="#f9b7aa"/><path d="m256 512c81.292969 0 153.726562-37.898438 200.621094-96.980469l-34.382813-80.542969c-4.601562-10.789062-14.0625-18.75-25.476562-21.445312l-90.628907-21.390625c-4.898437-1.160156-8.175781-5.777344-7.644531-10.785156l10.691407-101.265625h-106.359376l10.691407 101.265625c.53125 5.007812-2.746094 9.625-7.644531 10.785156l-90.628907 21.390625c-11.414062 2.695312-20.871093 10.65625-25.476562 21.445312l-34.382813 80.542969c46.894532 59.082031 119.328125 96.980469 200.621094 96.980469zm0 0" fill="#3d4751"/><path d="m205.867188 291.640625-90.628907 21.394531c-2.421875.570313-4.753906 1.394532-6.972656 2.417969 16.796875 65.933594 76.570313 114.699219 147.734375 114.699219s130.9375-48.765625 147.734375-114.699219c-2.21875-1.023437-4.550781-1.847656-6.972656-2.421875l-90.628907-21.390625c-4.898437-1.160156-8.175781-5.777344-7.644531-10.785156l10.691407-101.265625h-106.359376l10.691407 101.265625c.53125 5.007812-2.746094 9.628906-7.644531 10.785156zm0 0" fill="#fd4990"/><path d="m278.398438 330.085938 12.554687-12.558594c.265625-.261719.621094-.40625.988281-.40625h46.273438c1.679687 0 1.933594 2.414062.292968 2.761718l-58.828124 12.554688c-1.359376.292969-2.265626-1.371094-1.28125-2.351562zm0 0" fill="#fa3483"/><path d="m233.601562 330.085938-12.554687-12.558594c-.265625-.261719-.621094-.40625-.988281-.40625h-46.273438c-1.679687 0-1.933594 2.414062-.292968 2.761718l58.828124 12.554688c1.359376.292969 2.265626-1.371094 1.28125-2.351562zm0 0" fill="#fa3483"/><path d="m285.324219 267.578125 15.878906-12.441406 7.976563-75.546875h-106.359376l7.976563 75.546875 15.878906 12.441406c8.328125 6.527344 18.742188 10.121094 29.324219 10.121094s20.996094-3.59375 29.324219-10.121094zm0 0" fill="#f9b7aa"/><path d="m256 17.328125c-49.015625.003906-88.75 39.722656-88.75 88.738281l8.660156 89.839844c.855469 8.867188 5.308594 16.996094 12.320313 22.492188l47.695312 37.375c5.730469 4.488281 12.796875 6.925781 20.074219 6.925781s14.34375-2.4375 20.070312-6.925781l47.699219-37.375c7.011719-5.496094 11.464844-13.625 12.320313-22.492188l8.660156-89.839844c0-49.015625-39.734375-88.734375-88.75-88.738281zm0 0" fill="#ffddcf"/><path d="m256 124.867188c-4.203125 0-7.652344 3.328124-7.800781 7.53125l-1.363281 38.472656c-.183594 5.191406 3.972656 9.496094 9.164062 9.496094s9.347656-4.304688 9.164062-9.496094l-1.359374-38.472656c-.152344-4.203126-3.601563-7.53125-7.804688-7.53125zm0 0" fill="#ffcbbe"/><path d="m227.523438 248.011719c-8.855469-8.9375-26.058594-26.726563-32.851563-36.679688-9.328125-13.667969-9.003906-42.332031-12.003906-73.667969-3-31.332031 15.667969-50.664062 24.332031-76l-7.871094-23.71875c-19.484375 16.277344-31.878906 40.746094-31.878906 68.117188l8.660156 89.839844c.855469 8.871094 5.308594 17 12.320313 22.492187l39.292969 30.789063zm0 0" fill="#ffcbbe"/><path d="m256 17.328125c-49.015625.003906-88.75 39.722656-88.75 88.738281l5.679688 58.933594c2.648437 27.445312 20.738281 35.25 28.570312 35.25 4.453125 0 15.3125-11.402344 23.847656-21.234375 7.714844-8.886719 18.882813-14.015625 30.652344-14.015625s22.9375 5.128906 30.652344 14.015625c8.535156 9.832031 19.394531 21.234375 23.847656 21.234375 7.832031 0 25.921875-7.804688 28.570312-35.25l5.679688-58.933594c0-49.015625-39.734375-88.734375-88.75-88.738281zm0 0" fill="#fd4990"/><path d="m188.597656 195.59375c-3.347656-15.117188-3.816406-35.855469-5.929687-57.929688-3-31.332031 15.667969-50.664062 24.332031-76l-17.273438-14.613281c-13.976562 15.679688-22.476562 36.351563-22.476562 59.015625l5.679688 58.933594c1.574218 16.296875 8.589843 25.667969 15.667968 30.59375zm0 0" fill="#fa3483"/><path d="m256 165c3.054688 0 6.066406.351562 8.992188 1.019531l-1.191407-33.621093c-.148437-4.203126-3.597656-7.53125-7.800781-7.53125s-7.652344 3.328124-7.800781 7.53125l-1.1875 33.621093c2.921875-.667969 5.933593-1.019531 8.988281-1.019531zm0 0" fill="#fa3483"/><path d="m236.769531 206.867188c.152344.085937.324219.132812.5.132812h37.460938c.175781 0 .347656-.046875.5-.132812l5.203125-3c.882812-.511719.523437-1.867188-.5-1.867188h-47.867188c-1.019531 0-1.382812 1.355469-.5 1.867188zm0 0" fill="#ffcbbe"/><path d="m153.914062 490.816406c-4.972656-15.3125-11.859374-29.996094-20.347656-43.800781-6.839844-11.128906-10.542968-24.394531-9.875-38.566406 0 0-8.691406 16.050781-8.691406 32.550781 0 8.355469 4.105469 22.21875 8.152344 33.875 13.441406 8.175781 30.761718 15.941406 30.761718 15.941406zm0 0" fill="#333941"/><path d="m378.433594 447.015625c-8.488282 13.804687-15.375 28.488281-20.347656 43.800781 0 0 17.320312-7.765625 30.761718-15.941406 4.050782-11.65625 8.152344-25.519531 8.152344-33.875 0-16.5-8.6875-32.550781-8.6875-32.550781.667969 14.171875-3.039062 27.4375-9.878906 38.566406zm0 0" fill="#333941"/><path d="m355.980469 143.5625 3.769531-39.105469v-.722656c0-57.195313-46.542969-103.73046875-103.75-103.734375-57.207031.00390625-103.75 46.539062-103.75 103.734375v.722656l3.769531 39.105469s38.480469-23.300781 38.480469-59.179688h44.5c0-.003906 13.296875 59.40625 116.980469 59.179688zm0 0" fill="#00adfc"/><path d="m256 0c-57.207031.00390625-103.75 46.539062-103.75 103.734375v.722656l3.769531 39.105469s38.480469-23.300781 38.480469-59.179688c2.191406-14.761718 19.5-84.382812 61.5-84.382812zm0 0" fill="#00a5fb"/></svg>